# Blender v2.83.0 OBJ File: 'Bench.blend'
# www.blender.org
mtllib Stone bench.mtl
o Stone_bench_Cube
v -0.620384 -0.210657 2.112934
v -0.620384 -0.184740 2.138850
v -0.646300 -0.184740 2.112934
v -0.620384 0.184740 2.138850
v -0.620384 0.210657 2.112934
v -0.646300 0.184740 2.112934
v -0.620384 -0.210657 -2.112934
v -0.646300 -0.184740 -2.112934
v -0.620384 -0.184740 -2.138850
v -0.620384 0.210657 -2.112934
v -0.620384 0.184740 -2.138850
v -0.646300 0.184740 -2.112934
v 0.620384 -0.210657 2.112934
v 0.646300 -0.184740 2.112934
v 0.620384 -0.184740 2.138850
v 0.620384 0.210657 2.112934
v 0.620384 0.184740 2.138850
v 0.646300 0.184740 2.112934
v 0.620384 -0.210657 -2.112934
v 0.620384 -0.184740 -2.138850
v 0.646300 -0.184740 -2.112934
v 0.620384 0.210657 -2.112934
v 0.646300 0.184740 -2.112934
v 0.620384 0.184740 -2.138850
v 0.000000 -0.412523 1.708721
v -0.000000 -0.412523 1.295591
v -0.000000 -0.944554 1.708721
v -0.000000 -0.944554 1.295591
v 0.000000 -0.161306 1.708721
v -0.000000 -0.161306 1.295591
v 0.434764 -1.367671 1.708721
v 0.434764 -1.386489 1.689903
v 0.434764 -1.386489 1.314409
v 0.434764 -1.367671 1.295591
v 0.601236 -1.045025 1.295591
v 0.611018 -1.024960 1.314409
v 0.611018 -1.024960 1.689903
v 0.601236 -1.045025 1.708721
v 0.677483 -1.209968 1.295591
v 0.691978 -1.199427 1.314409
v 0.453586 -0.917084 1.689903
v 0.437501 -0.932678 1.708721
v 0.697197 -1.386489 1.689903
v 0.713616 -1.367825 1.689903
v 0.697627 -1.367671 1.708721
v 0.697196 -1.386489 1.314409
v 0.697627 -1.367671 1.295591
v 0.713616 -1.367825 1.314409
v 0.691978 -1.199427 1.689903
v 0.677483 -1.209968 1.708721
v -0.407614 -0.656125 1.295591
v -0.424080 -0.644474 1.314409
v -0.453586 -0.917084 1.689903
v -0.437501 -0.932679 1.708721
v -0.437501 -0.932678 1.295591
v -0.453586 -0.917084 1.314409
v 0.453586 -0.917084 1.314409
v 0.437501 -0.932678 1.295591
v 0.407614 -0.656125 1.708721
v 0.424079 -0.644474 1.689903
v 0.407614 -0.656125 1.295591
v 0.424079 -0.644474 1.314409
v 0.244842 -0.465678 1.689903
v 0.226025 -0.474924 1.708721
v 0.226025 -0.474924 1.295591
v 0.244842 -0.465678 1.314409
v -0.424080 -0.644474 1.689903
v -0.407614 -0.656125 1.708721
v -0.244843 -0.465678 1.314409
v -0.226025 -0.474924 1.295591
v -0.226025 -0.474924 1.708721
v -0.244843 -0.465678 1.689903
v -0.244843 -0.161306 1.689903
v -0.226025 -0.161306 1.708721
v -0.226025 -0.161306 1.295591
v -0.244843 -0.161306 1.314409
v 0.226025 -0.161306 1.708721
v 0.244842 -0.161306 1.689903
v 0.244842 -0.161306 1.314409
v 0.226025 -0.161306 1.295591
v -0.677483 -1.209968 1.295591
v -0.691978 -1.199427 1.314409
v -0.697197 -1.386489 1.689903
v -0.697627 -1.367671 1.708721
v -0.713616 -1.367825 1.689903
v -0.697197 -1.386489 1.314409
v -0.713616 -1.367825 1.314409
v -0.697627 -1.367671 1.295591
v -0.691978 -1.199427 1.689903
v -0.677483 -1.209968 1.708721
v -0.611018 -1.024960 1.314409
v -0.601236 -1.045025 1.295591
v -0.601236 -1.045025 1.708721
v -0.611018 -1.024960 1.689903
v -0.434764 -1.386489 1.689903
v -0.434764 -1.367671 1.708721
v -0.434764 -1.367671 1.295591
v -0.434764 -1.386489 1.314409
v -0.000000 -1.386489 1.689903
v -0.000000 -1.367671 1.708721
v -0.000000 -1.367671 1.295591
v -0.000000 -1.386489 1.314409
v 0.000000 -0.412523 -1.708721
v -0.000000 -0.412523 -1.295591
v -0.000000 -0.944554 -1.708721
v -0.000000 -0.944554 -1.295591
v 0.000000 -0.161306 -1.708721
v -0.000000 -0.161306 -1.295591
v 0.434764 -1.367671 -1.708721
v 0.434764 -1.386489 -1.689903
v 0.434764 -1.386489 -1.314409
v 0.434764 -1.367671 -1.295591
v 0.601236 -1.045025 -1.295591
v 0.611018 -1.024960 -1.314409
v 0.611018 -1.024960 -1.689903
v 0.601236 -1.045025 -1.708721
v 0.677483 -1.209968 -1.295591
v 0.691978 -1.199427 -1.314409
v 0.453586 -0.917084 -1.689903
v 0.437501 -0.932678 -1.708721
v 0.697197 -1.386489 -1.689903
v 0.713616 -1.367825 -1.689903
v 0.697627 -1.367671 -1.708721
v 0.697196 -1.386489 -1.314409
v 0.697627 -1.367671 -1.295591
v 0.713616 -1.367825 -1.314409
v 0.691978 -1.199427 -1.689903
v 0.677483 -1.209968 -1.708721
v -0.407614 -0.656125 -1.295591
v -0.424080 -0.644474 -1.314409
v -0.453586 -0.917084 -1.689903
v -0.437501 -0.932679 -1.708721
v -0.437501 -0.932678 -1.295591
v -0.453586 -0.917084 -1.314409
v 0.453586 -0.917084 -1.314409
v 0.437501 -0.932678 -1.295591
v 0.407614 -0.656125 -1.708721
v 0.424079 -0.644474 -1.689903
v 0.407614 -0.656125 -1.295591
v 0.424079 -0.644474 -1.314409
v 0.244842 -0.465678 -1.689903
v 0.226025 -0.474924 -1.708721
v 0.226025 -0.474924 -1.295591
v 0.244842 -0.465678 -1.314409
v -0.424080 -0.644474 -1.689903
v -0.407614 -0.656125 -1.708721
v -0.244843 -0.465678 -1.314409
v -0.226025 -0.474924 -1.295591
v -0.226025 -0.474924 -1.708721
v -0.244843 -0.465678 -1.689903
v -0.244843 -0.161306 -1.689903
v -0.226025 -0.161306 -1.708721
v -0.226025 -0.161306 -1.295591
v -0.244843 -0.161306 -1.314409
v 0.226025 -0.161306 -1.708721
v 0.244842 -0.161306 -1.689903
v 0.244842 -0.161306 -1.314409
v 0.226025 -0.161306 -1.295591
v -0.677483 -1.209968 -1.295591
v -0.691978 -1.199427 -1.314409
v -0.697197 -1.386489 -1.689903
v -0.697627 -1.367671 -1.708721
v -0.713616 -1.367825 -1.689903
v -0.697197 -1.386489 -1.314409
v -0.713616 -1.367825 -1.314409
v -0.697627 -1.367671 -1.295591
v -0.691978 -1.199427 -1.689903
v -0.677483 -1.209968 -1.708721
v -0.611018 -1.024960 -1.314409
v -0.601236 -1.045025 -1.295591
v -0.601236 -1.045025 -1.708721
v -0.611018 -1.024960 -1.689903
v -0.434764 -1.386489 -1.689903
v -0.434764 -1.367671 -1.708721
v -0.434764 -1.367671 -1.295591
v -0.434764 -1.386489 -1.314409
v -0.000000 -1.386489 -1.689903
v -0.000000 -1.367671 -1.708721
v -0.000000 -1.367671 -1.295591
v -0.000000 -1.386489 -1.314409
vt 0.847177 0.461539
vt 0.846373 0.500749
vt 0.719432 0.500623
vt 0.720236 0.461412
vt 0.855632 0.019584
vt 0.893916 0.019584
vt 0.893916 0.457443
vt 0.855632 0.457443
vt 0.847179 0.942543
vt 0.718619 0.942543
vt 0.718619 0.504684
vt 0.847179 0.504684
vt 0.711787 0.457511
vt 0.673504 0.457511
vt 0.673504 0.019652
vt 0.711787 0.019652
vt 0.718621 0.985689
vt 0.719425 0.946478
vt 0.846366 0.946605
vt 0.845562 0.985816
vt 0.719429 0.457477
vt 0.716099 0.460639
vt 0.715425 0.501366
vt 0.717808 0.989751
vt 0.714615 0.986432
vt 0.715288 0.945706
vt 0.847990 0.457477
vt 0.851183 0.460795
vt 0.850510 0.501522
vt 0.846369 0.989751
vt 0.849699 0.986588
vt 0.850373 0.945862
vt 0.719429 0.019618
vt 0.665862 0.457544
vt 0.665862 0.019686
vt 0.847990 0.019618
vt 0.901558 0.019551
vt 0.901558 0.457409
vt 0.369305 0.683268
vt 0.288860 0.682967
vt 0.288724 0.719340
vt 0.369168 0.719641
vt 0.190029 0.528776
vt 0.283487 0.528929
vt 0.283894 0.622064
vt 0.187585 0.626711
vt 0.215751 0.660607
vt 0.251027 0.675345
vt 0.283894 0.622061
vt 0.442700 0.661230
vt 0.471075 0.627382
vt 0.374627 0.622289
vt 0.288196 0.860176
vt 0.368641 0.860477
vt 0.368861 0.801733
vt 0.288416 0.801432
vt 0.288569 0.760546
vt 0.369014 0.760847
vt 0.283265 0.676635
vt 0.085134 0.477101
vt 0.071281 0.528580
vt 0.190029 0.528774
vt 0.128005 0.440216
vt 0.587989 0.529436
vt 0.574101 0.581038
vt 0.644558 0.579040
vt 0.644084 0.529528
vt 0.574269 0.477790
vt 0.644720 0.480018
vt 0.468986 0.529242
vt 0.289336 0.256453
vt 0.369777 0.256426
vt 0.369758 0.197684
vt 0.289316 0.197711
vt 0.187907 0.430832
vt 0.084966 0.580103
vt 0.127716 0.617128
vt 0.531408 0.440686
vt 0.287993 0.914413
vt 0.368438 0.914715
vt 0.369791 0.297311
vt 0.289349 0.297338
vt 0.375387 0.529091
vt 0.374931 0.435880
vt 0.471397 0.431111
vt 0.468987 0.529244
vt 0.369740 0.143448
vt 0.289298 0.143475
vt 0.015322 0.528488
vt 0.014686 0.577876
vt 0.369718 0.078243
vt 0.289276 0.078270
vt 0.287749 0.979621
vt 0.368194 0.979922
vt 0.014847 0.479098
vt 0.251513 0.382407
vt 0.216186 0.397027
vt 0.284198 0.435805
vt 0.369264 0.435775
vt 0.289860 0.435715
vt 0.289202 0.528937
vt 0.369666 0.529079
vt 0.471395 0.431110
vt 0.374930 0.435878
vt 0.375386 0.529089
vt 0.289375 0.374914
vt 0.369817 0.374887
vt 0.369805 0.338515
vt 0.289363 0.338542
vt 0.283757 0.381225
vt 0.443133 0.397168
vt 0.407759 0.382447
vt 0.289377 0.380239
vt 0.369819 0.380212
vt 0.288880 0.677641
vt 0.369324 0.677941
vt 0.368959 0.622371
vt 0.289554 0.622172
vt 0.187586 0.626709
vt 0.531120 0.618002
vt 0.375447 0.381210
vt 0.407275 0.675834
vt 0.373706 0.682155
vt 0.374956 0.676963
vt 0.284485 0.681823
vt 0.374214 0.376013
vt 0.284996 0.376041
vt 0.409690 0.680879
vt 0.248592 0.680367
vt 0.447822 0.665021
vt 0.210623 0.664366
vt 0.475297 0.632586
vt 0.576892 0.471886
vt 0.534590 0.435528
vt 0.124846 0.435062
vt 0.082536 0.471202
vt 0.475634 0.425919
vt 0.183691 0.425642
vt 0.124540 0.622272
vt 0.183353 0.631885
vt 0.534284 0.623170
vt 0.576704 0.586950
vt 0.082348 0.585993
vt 0.014495 0.583809
vt 0.014676 0.473165
vt 0.644730 0.584987
vt 0.644911 0.474071
vt 0.448268 0.393394
vt 0.410191 0.377410
vt 0.249094 0.377376
vt 0.211070 0.393251
vt 0.283487 0.528927
vt 0.369304 0.683270
vt 0.369168 0.719643
vt 0.288724 0.719343
vt 0.288859 0.682969
vt 0.215751 0.660609
vt 0.251026 0.675348
vt 0.442701 0.661234
vt 0.374627 0.622292
vt 0.471076 0.627385
vt 0.288198 0.860178
vt 0.288417 0.801434
vt 0.368862 0.801735
vt 0.368643 0.860479
vt 0.288570 0.760548
vt 0.369014 0.760849
vt 0.283264 0.676638
vt 0.085133 0.477102
vt 0.071279 0.528581
vt 0.128004 0.440217
vt 0.587991 0.529438
vt 0.644086 0.529530
vt 0.644561 0.579042
vt 0.574103 0.581040
vt 0.574271 0.477792
vt 0.644722 0.480019
vt 0.289336 0.256454
vt 0.289316 0.197712
vt 0.369758 0.197685
vt 0.369778 0.256427
vt 0.187907 0.430833
vt 0.084964 0.580105
vt 0.127714 0.617130
vt 0.531410 0.440687
vt 0.287996 0.914416
vt 0.368440 0.914716
vt 0.369791 0.297312
vt 0.289349 0.297339
vt 0.289298 0.143476
vt 0.369740 0.143449
vt 0.014683 0.577878
vt 0.015320 0.528489
vt 0.289276 0.078270
vt 0.369718 0.078243
vt 0.368197 0.979923
vt 0.287752 0.979623
vt 0.014845 0.479098
vt 0.251513 0.382408
vt 0.284199 0.435806
vt 0.216186 0.397029
vt 0.369264 0.435777
vt 0.369667 0.529082
vt 0.289202 0.528939
vt 0.289860 0.435716
vt 0.289375 0.374915
vt 0.289363 0.338543
vt 0.369805 0.338516
vt 0.369817 0.374888
vt 0.283757 0.381227
vt 0.443134 0.397170
vt 0.407759 0.382448
vt 0.289377 0.380241
vt 0.369819 0.380214
vt 0.288879 0.677644
vt 0.289554 0.622175
vt 0.368959 0.622374
vt 0.369324 0.677944
vt 0.531121 0.618005
vt 0.375447 0.381211
vt 0.407276 0.675838
vt 0.374957 0.676967
vt 0.373706 0.682160
vt 0.284485 0.681825
vt 0.374215 0.376014
vt 0.284996 0.376042
vt 0.409692 0.680883
vt 0.248591 0.680370
vt 0.447824 0.665025
vt 0.210622 0.664369
vt 0.475298 0.632589
vt 0.576894 0.471887
vt 0.534592 0.435530
vt 0.124846 0.435062
vt 0.082535 0.471203
vt 0.475636 0.425921
vt 0.183691 0.425643
vt 0.124539 0.622274
vt 0.183352 0.631887
vt 0.534286 0.623173
vt 0.576706 0.586953
vt 0.082346 0.585995
vt 0.014492 0.583811
vt 0.014674 0.473165
vt 0.644733 0.584990
vt 0.644913 0.474072
vt 0.448269 0.393395
vt 0.410192 0.377411
vt 0.249094 0.377377
vt 0.211070 0.393252
vn 0.0000 0.0000 1.0000
vn 1.0000 0.0000 0.0000
vn 0.0000 1.0000 0.0000
vn -1.0000 0.0000 0.0000
vn 0.0000 0.0000 -1.0000
vn -0.5774 -0.5773 0.5773
vn -0.5774 0.5773 0.5773
vn -0.5774 -0.5773 -0.5773
vn -0.5774 0.5773 -0.5773
vn 0.5774 -0.5773 0.5773
vn 0.5774 0.5773 0.5773
vn 0.5774 -0.5773 -0.5773
vn 0.5774 0.5773 -0.5773
vn -0.7071 -0.7071 0.0000
vn -0.7071 0.0000 0.7071
vn -0.7071 0.7071 0.0000
vn -0.7071 0.0000 -0.7071
vn 0.0000 -0.7071 -0.7071
vn 0.0000 0.7071 -0.7071
vn 0.7071 0.0000 -0.7071
vn 0.7071 -0.7071 0.0000
vn 0.7071 0.7071 0.0000
vn 0.7071 0.0000 0.7071
vn 0.0000 -0.7071 0.7071
vn 0.0000 0.7071 0.7071
vn 0.0000 -1.0000 0.0000
vn 0.9918 0.1274 -0.0000
vn 0.9607 0.2774 -0.0000
vn 0.9942 0.1076 -0.0000
vn 0.5653 0.8249 0.0000
vn 0.9071 0.4209 -0.0000
vn -0.9942 0.1076 0.0000
vn 0.7062 0.7080 0.0000
vn -0.5653 0.8249 0.0000
vn -0.7062 0.7080 0.0000
vn -0.9918 0.1274 0.0000
vn -0.9607 0.2774 0.0000
vn -0.9071 0.4209 0.0000
vn 0.6314 -0.5555 0.5411
vn 0.6314 -0.5555 -0.5411
vn -0.6314 -0.5555 0.5411
vn -0.6314 -0.5555 -0.5411
vn 0.7508 -0.6605 -0.0000
vn 0.7601 0.0974 0.6425
vn 0.7099 0.2212 0.6687
vn 0.7243 0.1892 0.6630
vn 0.7099 0.2212 -0.6687
vn 0.7601 0.0974 -0.6425
vn 0.7243 0.1892 -0.6630
vn 0.4917 0.4555 0.7421
vn 0.5524 0.4095 0.7261
vn 0.4917 0.4555 -0.7421
vn 0.5524 0.4095 -0.7261
vn 0.3674 0.5358 0.7602
vn -0.4858 0.4870 0.7258
vn -0.6121 0.3099 0.7275
vn -0.6314 0.2771 0.7242
vn -0.6121 0.3099 -0.7275
vn -0.4858 0.4870 -0.7258
vn -0.6314 0.2771 -0.7242
vn -0.7252 0.0784 0.6840
vn -0.7252 0.0784 -0.6840
vn 0.6121 0.3099 -0.7275
vn 0.7252 0.0784 -0.6840
vn 0.6314 0.2771 -0.7242
vn 0.6121 0.3099 0.7275
vn 0.4858 0.4870 0.7258
vn 0.6314 0.2771 0.7242
vn 0.4858 0.4870 -0.7258
vn -0.4917 0.4555 0.7421
vn -0.7099 0.2212 0.6687
vn -0.7243 0.1892 0.6630
vn -0.5524 0.4095 0.7261
vn -0.7099 0.2212 -0.6687
vn -0.4917 0.4555 -0.7421
vn -0.5524 0.4095 -0.7261
vn -0.7243 0.1892 -0.6630
vn -0.7601 0.0974 0.6425
vn -0.7601 0.0974 -0.6425
vn -0.7508 -0.6605 0.0000
vn 0.3674 0.5358 -0.7602
vn 0.7252 0.0784 0.6840
vn -0.3674 0.5358 0.7602
vn -0.3674 0.5358 -0.7602
usemtl Mat
s 1
f 15/1/1 17/2/1 4/3/1 2/4/1
f 21/5/2 23/6/2 18/7/2 14/8/2
f 22/9/3 10/10/3 5/11/3 16/12/3
f 3/13/4 6/14/4 12/15/4 8/16/4
f 9/17/5 11/18/5 24/19/5 20/20/5
f 1/21/6 2/4/6 3/22/6
f 4/3/7 5/11/7 6/23/7
f 7/24/8 8/25/8 9/17/8
f 10/10/9 11/18/9 12/26/9
f 13/27/10 14/28/10 15/1/10
f 16/12/11 17/2/11 18/29/11
f 19/30/12 20/20/12 21/31/12
f 22/9/13 23/32/13 24/19/13
f 7/33/14 1/21/14 3/13/14 8/16/14
f 2/4/15 4/3/15 6/23/15 3/22/15
f 5/34/16 10/35/16 12/15/16 6/14/16
f 11/18/17 9/17/17 8/25/17 12/26/17
f 19/30/18 7/24/18 9/17/18 20/20/18
f 10/10/19 22/9/19 24/19/19 11/18/19
f 23/32/20 21/31/20 20/20/20 24/19/20
f 13/27/21 19/36/21 21/5/21 14/8/21
f 22/37/22 16/38/22 18/7/22 23/6/22
f 17/2/23 15/1/23 14/28/23 18/29/23
f 1/21/24 13/27/24 15/1/24 2/4/24
f 16/12/25 5/11/25 4/3/25 17/2/25
f 7/33/26 19/36/26 13/27/26 1/21/26
f 44/39/27 48/40/27 40/41/28 49/42/28
f 106/43/1 179/44/1 112/45/1 136/46/1
f 35/47/5 39/48/5 34/49/5
f 38/50/1 42/51/1 31/52/1
f 62/53/29 60/54/29 41/55/29 57/56/29
f 36/57/30 57/56/30 41/55/30 37/58/30
f 49/42/28 40/41/28 36/57/31 37/58/31
f 39/48/5 47/59/5 34/49/5
f 70/60/5 26/61/5 28/62/5
f 51/63/5 70/60/5 28/62/5
f 25/64/1 64/65/1 77/66/1 29/67/1
f 71/68/1 25/64/1 29/67/1 74/69/1
f 25/64/1 71/68/1 27/70/1
f 56/71/32 53/72/32 67/73/32 52/74/32
f 55/75/5 51/63/5 28/62/5
f 65/76/5 61/77/5 28/62/5
f 71/68/1 68/78/1 27/70/1
f 66/79/33 63/80/33 60/54/33 62/53/33
f 94/81/34 53/72/34 56/71/34 91/82/34
f 178/83/5 174/84/5 132/85/5 105/86/5
f 64/65/1 25/64/1 27/70/1
f 52/74/35 67/73/35 72/87/35 69/88/35
f 65/76/5 26/61/5 30/89/5 80/90/5
f 69/88/4 72/87/4 73/91/4 76/92/4
f 63/80/2 66/79/2 79/93/2 78/94/2
f 26/61/5 65/76/5 28/62/5
f 26/61/5 70/60/5 75/95/5 30/89/5
f 81/96/5 92/97/5 97/98/5
f 95/99/26 98/100/26 102/101/26 99/102/26
f 54/103/1 96/104/1 100/105/1 27/70/1
f 87/106/36 85/107/36 89/108/37 82/109/37
f 88/110/5 81/96/5 97/98/5
f 93/111/1 90/112/1 96/104/1
f 86/113/26 98/100/26 95/99/26 83/114/26
f 82/109/37 89/108/37 94/81/38 91/82/38
f 46/115/26 43/116/26 32/117/26 33/118/26
f 58/119/5 35/47/5 34/49/5
f 42/51/1 59/120/1 27/70/1
f 90/112/1 84/121/1 96/104/1
f 50/122/1 38/50/1 31/52/1
f 54/103/1 93/111/1 96/104/1
f 61/77/5 58/119/5 28/62/5
f 92/97/5 55/75/5 97/98/5
f 59/120/1 64/65/1 27/70/1
f 68/78/1 54/103/1 27/70/1
f 32/117/26 99/102/26 102/101/26 33/118/26
f 43/116/39 44/123/39 45/124/39
f 46/115/40 47/59/40 48/125/40
f 83/114/41 84/121/41 85/126/41
f 86/113/42 87/127/42 88/110/42
f 48/40/43 44/39/43 43/116/43 46/115/43
f 44/123/44 49/128/45 50/122/46 45/124/44
f 40/129/47 48/125/48 47/59/48 39/48/49
f 49/128/45 37/130/50 38/50/51 50/122/46
f 36/131/52 40/129/47 39/48/49 35/47/53
f 42/51/54 38/50/51 37/130/50 41/132/54
f 34/49/18 47/59/18 46/115/18 33/118/18
f 45/124/24 31/52/24 32/117/24 43/116/24
f 72/133/55 67/134/56 68/78/57 71/68/55
f 52/135/58 69/136/59 70/60/59 51/63/60
f 67/134/56 53/137/61 54/103/61 68/78/57
f 56/138/62 52/135/58 51/63/60 55/75/62
f 62/139/63 57/140/64 58/119/64 61/77/65
f 60/141/66 63/142/67 64/65/67 59/120/68
f 66/143/69 62/139/63 61/77/65 65/76/69
f 79/144/20 66/143/20 65/76/20 80/90/20
f 69/136/17 76/145/17 75/95/17 70/60/17
f 63/142/23 78/146/23 77/66/23 64/65/23
f 71/68/15 74/69/15 73/147/15 72/133/15
f 88/110/18 97/98/18 98/100/18 86/113/18
f 96/104/24 84/121/24 83/114/24 95/99/24
f 94/148/70 89/149/71 90/112/72 93/111/73
f 82/150/74 91/151/75 92/97/76 81/96/77
f 89/149/71 85/126/78 84/121/78 90/112/72
f 87/127/79 82/150/74 81/96/77 88/110/79
f 85/107/80 87/106/80 86/113/80 83/114/80
f 97/98/18 101/152/18 102/101/18 98/100/18
f 100/105/24 96/104/24 95/99/24 99/102/24
f 99/102/24 32/117/24 31/52/24 100/105/24
f 33/118/18 102/101/18 101/152/18 34/49/18
f 35/47/53 58/119/81 57/140/81 36/131/52
f 41/132/82 60/141/66 59/120/68 42/51/82
f 93/111/73 54/103/83 53/137/83 94/148/70
f 55/75/84 92/97/76 91/151/75 56/138/84
f 45/124/1 50/122/1 31/52/1
f 122/153/27 127/154/28 118/155/28 126/156/27
f 42/51/1 27/70/1 100/105/1 31/52/1
f 113/157/1 112/45/1 117/158/1
f 116/159/5 109/160/5 120/161/5
f 28/62/5 58/119/5 34/49/5 101/152/5
f 140/162/29 135/163/29 119/164/29 138/165/29
f 114/166/30 115/167/30 119/164/30 135/163/30
f 127/154/28 115/167/31 114/166/31 118/155/28
f 117/158/1 112/45/1 125/168/1
f 148/169/1 106/43/1 104/170/1
f 129/171/1 106/43/1 148/169/1
f 103/172/5 107/173/5 155/174/5 142/175/5
f 149/176/5 152/177/5 107/173/5 103/172/5
f 103/172/5 105/86/5 149/176/5
f 134/178/32 130/179/32 145/180/32 131/181/32
f 133/182/1 106/43/1 129/171/1
f 143/183/1 106/43/1 139/184/1
f 149/176/5 105/86/5 146/185/5
f 144/186/33 140/162/33 138/165/33 141/187/33
f 172/188/34 169/189/34 134/178/34 131/181/34
f 178/83/5 105/86/5 120/161/5 109/160/5
f 142/175/5 105/86/5 103/172/5
f 130/179/35 147/190/35 150/191/35 145/180/35
f 143/183/1 158/192/1 108/193/1 104/170/1
f 147/190/4 154/194/4 151/195/4 150/191/4
f 141/187/2 156/196/2 157/197/2 144/186/2
f 104/170/1 106/43/1 143/183/1
f 104/170/1 108/193/1 153/198/1 148/169/1
f 159/199/1 175/200/1 170/201/1
f 173/202/26 177/203/26 180/204/26 176/205/26
f 101/152/5 97/98/5 55/75/5 28/62/5
f 165/206/36 160/207/37 167/208/37 163/209/36
f 166/210/1 175/200/1 159/199/1
f 171/211/5 174/84/5 168/212/5
f 164/213/26 161/214/26 173/202/26 176/205/26
f 160/207/37 169/189/38 172/188/38 167/208/37
f 124/215/26 111/216/26 110/217/26 121/218/26
f 136/46/1 112/45/1 113/157/1
f 120/161/5 105/86/5 137/219/5
f 168/212/5 174/84/5 162/220/5
f 128/221/5 109/160/5 116/159/5
f 132/85/5 174/84/5 171/211/5
f 139/184/1 106/43/1 136/46/1
f 170/201/1 175/200/1 133/182/1
f 137/219/5 105/86/5 142/175/5
f 146/185/5 105/86/5 132/85/5
f 110/217/26 111/216/26 180/204/26 177/203/26
f 121/218/40 123/222/40 122/223/40
f 124/215/39 126/224/39 125/168/39
f 161/214/42 163/225/42 162/220/42
f 164/213/41 166/210/41 165/226/41
f 126/156/43 124/215/43 121/218/43 122/153/43
f 122/223/48 123/222/48 128/221/49 127/227/47
f 118/228/45 117/158/46 125/168/44 126/224/44
f 127/227/47 128/221/49 116/159/53 115/229/52
f 114/230/50 113/157/51 117/158/46 118/228/45
f 120/161/81 119/231/81 115/229/52 116/159/53
f 112/45/24 111/216/24 124/215/24 125/168/24
f 123/222/18 121/218/18 110/217/18 109/160/18
f 150/232/59 149/176/59 146/185/60 145/233/58
f 130/234/56 129/171/57 148/169/55 147/235/55
f 145/233/58 146/185/60 132/85/62 131/236/62
f 134/237/61 133/182/61 129/171/57 130/234/56
f 140/238/66 139/184/68 136/46/82 135/239/82
f 138/240/63 137/219/65 142/175/69 141/241/69
f 144/242/67 143/183/67 139/184/68 140/238/66
f 157/243/23 158/192/23 143/183/23 144/242/23
f 147/235/15 148/169/15 153/198/15 154/244/15
f 141/241/20 142/175/20 155/174/20 156/245/20
f 149/176/17 150/232/17 151/246/17 152/177/17
f 166/210/24 164/213/24 176/205/24 175/200/24
f 174/84/18 173/202/18 161/214/18 162/220/18
f 172/247/75 171/211/76 168/212/77 167/248/74
f 160/249/71 159/199/72 170/201/73 169/250/70
f 167/248/74 168/212/77 162/220/79 163/225/79
f 165/226/78 166/210/78 159/199/72 160/249/71
f 163/209/80 161/214/80 164/213/80 165/206/80
f 175/200/24 176/205/24 180/204/24 179/44/24
f 178/83/18 177/203/18 173/202/18 174/84/18
f 177/203/18 178/83/18 109/160/18 110/217/18
f 111/216/24 112/45/24 179/44/24 180/204/24
f 113/157/51 114/230/50 135/239/54 136/46/54
f 119/231/64 120/161/64 137/219/65 138/240/63
f 171/211/76 172/247/75 131/236/84 132/85/84
f 133/182/83 134/237/83 169/250/70 170/201/73
f 123/222/5 109/160/5 128/221/5
f 133/182/1 175/200/1 179/44/1 106/43/1
