# Blender v2.83.16 OBJ File: ''
# www.blender.org
mtllib rock2.mtl
v -0.941401 -0.655486 -0.435717
v -0.873522 0.759521 -0.407226
v 0.388009 -0.709447 -0.922974
v 0.408817 0.636551 -0.842983
v -0.455888 -0.705560 0.894482
v -0.388009 0.709447 0.922974
v 0.873522 -0.759521 0.407226
v 0.894330 0.586476 0.487217
v 1.093747 0.797494 1.332906
v 1.032557 -0.607708 1.297098
v -0.296854 -0.553747 1.784354
v 0.516418 1.967401 -0.869075
v 1.001932 1.917326 0.461125
v 1.927211 0.544679 0.108583
v 1.906319 -0.801442 0.028685
v 2.375227 0.572062 1.156257
v 2.307439 -0.842812 1.127666
v 1.413813 0.595758 -1.211335
v 1.393005 -0.750240 -1.291326
v 1.878519 -0.800314 0.038874
v 1.899326 0.545683 0.118865
v -1.485678 -0.233297 0.113117
v -1.447992 0.552326 0.128936
v -1.178431 0.524524 0.867473
v -1.216117 -0.261099 0.851655
v -0.993412 -0.284068 1.461818
v 0.759880 0.928662 0.991801
v 0.099014 0.988004 1.218319
v 0.811678 1.606809 0.982169
v 0.130090 1.635770 1.231360
v 0.667085 0.343198 1.726206
v 0.630291 -0.423818 1.710762
v 1.358145 0.215758 1.634365
v 1.321351 -0.551259 1.618920
v -0.868403 0.866234 -0.405077
v -0.416647 1.980484 0.704078
v 0.272260 1.977311 -0.779586
v -1.143821 0.520955 0.962298
v -0.982023 -0.046640 1.466599
v -0.501068 0.726588 1.687345
v -0.375434 0.721451 0.993337
v -0.501039 0.726602 1.687358
v -0.269415 0.018248 1.795871
v 0.563741 0.823045 1.525214
v -0.416635 1.980483 0.704112
v -0.361664 1.258644 0.934032
v 0.130064 1.635788 1.231344
v 0.342056 1.944111 0.702983
vt 0.375000 0.000000
vt 0.625000 0.000000
vt 0.625000 0.250000
vt 0.375000 0.250000
vt 0.375000 0.500000
vt 0.125000 0.500000
vt 0.125000 0.500000
vt 0.375000 0.500000
vt 0.625000 0.750000
vt 0.625000 1.000000
vt 0.625000 1.000000
vt 0.625000 0.750000
vt 0.375000 0.750000
vt 0.375000 0.750000
vt 0.450554 0.750000
vt 0.625000 0.750000
vt 0.375000 0.750000
vt 0.125000 0.750000
vt 0.625000 0.750000
vt 0.625000 0.750000
vt 0.625000 0.750000
vt 0.375000 0.500000
vt 0.375000 0.750000
vt 0.625000 0.500000
vt 0.625000 0.600173
vt 0.476059 0.750000
vt 0.375000 0.500000
vt 0.375000 0.500000
vt 0.625000 0.000000
vt 0.625000 0.204085
vt 0.625000 0.250000
vt 0.625000 0.500000
vt 0.625000 0.500000
vt 0.625000 0.624092
vt 0.625000 0.750000
vt 0.625000 0.750000
vt 0.625000 0.500000
vt 0.625000 0.500000
vt 0.625000 0.500000
vt 0.375000 0.500000
vt 0.375000 0.500000
vt 0.375000 0.250000
vt 0.625000 0.250000
vt 0.625000 0.500000
vt 0.375000 1.000000
vt 0.375000 0.000000
vt 0.625000 0.000000
vt 0.125000 0.750000
vt 0.625000 0.750000
vt 0.625000 0.500000
vt 0.625000 0.750000
vt 0.625000 0.795909
vt 0.625000 0.795915
vt 0.625000 1.000000
vt 0.625000 0.500000
vt 0.625000 0.500000
vt 0.625000 0.000000
vt 0.670909 0.750000
vt 0.625000 0.689172
vt 0.875000 0.500000
vt 0.875000 0.545915
vt 0.670915 0.750000
vn -0.3300 0.0476 -0.9428
vn -0.0479 -0.9986 -0.0201
vn -0.2342 0.9645 0.1218
vn -0.9382 0.0381 0.3439
vn -0.2485 0.9679 -0.0388
vn 0.0203 -0.9861 0.1646
vn 0.3413 -0.0374 0.9392
vn -0.0993 -0.9916 0.0830
vn -0.3254 0.0130 -0.9455
vn 0.9352 -0.0824 -0.3444
vn 0.2378 0.7941 0.5594
vn 0.9297 -0.0154 -0.3679
vn -0.1364 -0.9477 0.2886
vn 0.0777 0.9855 -0.1506
vn -0.3413 0.0610 -0.9380
vn 0.9394 0.0058 -0.3427
vn 0.0479 0.9986 0.0201
vn 0.3413 -0.0610 0.9380
vn -0.4706 -0.8608 0.1937
vn -0.6907 0.0477 -0.7216
vn -0.5052 -0.8494 0.1524
vn 0.3326 -0.0232 0.9428
vn 0.9504 -0.0700 0.3030
vn 0.1201 -0.8093 0.5751
vn 0.1270 -0.0261 0.9916
vn 0.4363 -0.0391 0.8990
vn -0.7048 0.0485 -0.7077
vn 0.2061 0.5224 0.8274
vn -0.7119 0.6190 -0.3319
vn -0.5218 0.0079 0.8530
vn -0.7542 0.3027 0.5827
vn -0.4196 0.0019 0.9077
vn 0.0317 0.7538 0.6563
vn 0.0027 0.9756 -0.2194
vn -0.3349 0.5911 0.7337
usemtl rock
s 1
f 1/1/1 2/2/1 4/3/1 3/4/1
f 7/5/2 3/6/2 19/7/2 20/8/2
f 6/9/3 2/10/3 23/11/3 24/12/3
f 24/12/4 25/13/4 26/14/4 39/15/4 38/16/4
f 3/6/2 7/5/2 5/17/2 1/18/2
f 42/19/5 41/20/5 6/9/5 24/12/5 38/16/5 40/21/5
f 5/17/6 7/5/6 10/22/6 11/23/6
f 10/22/7 9/24/7 44/25/7 43/26/7 11/23/7
f 10/22/8 7/5/8 15/27/8 17/28/8
f 4/3/9 2/2/9 35/29/9 37/30/9 12/31/9
f 8/32/10 4/3/10 12/31/10 13/33/10
f 13/33/11 48/34/11 47/35/11 30/36/11 29/37/11
f 15/27/12 14/38/12 16/39/12 17/28/12
f 10/22/13 17/28/13 34/40/13 32/41/13
f 8/32/14 9/24/14 16/39/14 14/38/14
f 7/5/15 8/32/15 14/38/15 15/27/15
f 19/42/16 18/43/16 21/44/16 20/8/16
f 4/3/17 8/32/17 21/44/17 18/43/17
f 3/4/15 4/3/15 18/43/15 19/42/15
f 8/32/18 7/5/18 20/8/18 21/44/18
f 25/13/4 24/12/4 23/11/4 22/45/4
f 5/17/19 11/23/19 26/14/19 25/13/19
f 2/2/20 1/1/20 22/46/20 23/47/20
f 1/18/21 5/17/21 25/13/21 22/48/21
f 28/49/22 27/50/22 29/37/22 30/36/22
f 2/10/4 6/9/4 46/51/4 45/52/4 36/53/4 35/54/4
f 8/32/23 13/33/23 29/37/23 27/50/23
f 6/9/24 8/32/24 27/50/24 28/49/24
f 31/55/25 32/41/25 34/40/25 33/56/25
f 17/28/26 16/39/26 33/56/26 34/40/26
f 9/24/27 10/22/27 32/41/27 31/55/27
f 16/39/28 9/24/28 31/55/28 33/56/28
f 35/29/29 36/57/29 37/30/29
f 47/35/30 46/51/30 6/9/30 28/49/30 30/36/30
f 38/16/31 39/15/31 40/21/31
f 11/23/32 43/26/32 42/19/32 40/21/32 39/15/32 26/14/32
f 41/20/33 42/19/33 43/26/33 44/25/33
f 8/32/34 6/9/34 41/20/34 44/25/34 9/24/34
f 45/58/35 46/51/35 47/59/35 48/34/35
f 13/33/17 12/60/17 37/61/17 36/62/17 45/58/17 48/34/17
