# Blender v2.83.16 OBJ File: ''
# www.blender.org
mtllib rock6.mtl
v 0.704544 0.022121 -0.754555
v 0.767224 0.022121 -0.720301
v 0.781547 0.022121 0.228466
v 1.015373 0.261120 0.227291
v 1.129002 0.388825 -0.522590
v 1.191177 0.445765 -0.094402
v 0.849451 0.502199 0.530902
v 0.546942 0.663010 0.878949
v -1.074736 1.075169 -0.115834
v -0.954833 0.583099 0.390753
v 1.227701 0.846432 -0.161234
v 1.173185 0.752412 -0.498444
v -1.024682 1.284578 -0.208465
v 0.592294 1.477326 -0.815900
v -0.530811 1.897637 -0.057146
v -0.216558 1.865999 -0.543596
v 0.448211 1.860257 -0.509310
v 0.219204 0.022121 0.655066
v 0.066917 0.022121 0.617222
v 0.409034 0.571175 0.915860
v -0.132600 1.122260 0.995671
v -0.762016 0.579365 0.628035
v 0.046676 0.712298 -1.114079
v -0.809941 1.217914 -0.603115
v -0.363765 1.479575 -0.870153
v 0.046016 1.153421 -1.114439
v -0.191308 0.022121 -0.760982
v -0.633107 0.022121 -0.270051
v -1.018297 0.369734 -0.221665
v -1.007215 0.319047 -0.178623
v -0.810974 0.506379 -0.601280
v -0.322715 0.276355 -0.892621
v 0.672352 1.085682 0.821146
v 0.714226 1.093812 0.778340
v 1.020525 1.364498 0.217864
v 0.589872 1.885074 -0.049454
v -0.096689 1.921959 0.453096
v 0.010027 1.431915 0.942156
vt 0.406779 0.542656
vt 0.461272 0.063337
vt 0.375000 0.157049
vt 0.375000 0.633552
vt 0.478039 0.283720
vt 0.427956 0.293240
vt 0.324174 0.379151
vt 0.401491 0.332155
vt 0.228211 0.525578
vt 0.125000 0.584022
vt 0.398341 0.322854
vt 0.343877 0.400063
vt 0.507626 0.427113
vt 0.453169 0.452885
vt 0.435010 0.382314
vt 0.508961 0.417561
vt 0.375000 0.605458
vt 0.308713 0.561688
vt 0.439345 0.480459
vt 0.512517 0.571137
vt 0.444656 0.681370
vt 0.625248 0.532370
vt 0.625031 0.333937
vt 0.639403 0.291162
vt 0.629918 0.376301
vt 0.643941 0.588835
vt 0.516413 0.063243
vt 0.556901 0.141059
vt 0.466286 0.223806
vt 0.420838 0.217512
vt 0.375000 0.165978
vt 0.551224 0.542652
vt 0.375000 0.818815
vt 0.445122 0.731212
vt 0.412116 0.830404
vt 0.404875 0.339065
vt 0.435469 0.892335
vt 0.258330 0.710633
vt 0.417803 0.838223
vt 0.578539 0.373340
vt 0.551718 0.812980
vt 0.569559 0.847310
vt 0.499953 0.822773
vt 0.528578 0.836120
vt 0.524280 0.892589
vt 0.313691 0.580661
vt 0.177997 0.691601
vt 0.125000 0.592951
vt 0.710220 0.406976
vt 0.660122 0.391324
vt 0.542797 0.337722
vn 0.0064 -0.4572 -0.8893
vn 0.9855 -0.1112 -0.1283
vn 0.7147 -0.6993 -0.0108
vn 0.7210 -0.1206 0.6824
vn -0.2256 -0.3532 0.9079
vn 0.0116 0.9983 -0.0574
vn 0.4796 -0.0000 -0.8775
vn 0.2144 0.0696 0.9743
vn -0.5076 -0.7629 0.4005
vn 0.5211 -0.5065 0.6870
vn -0.6002 -0.5899 -0.5401
vn 0.0453 0.6347 -0.7714
vn -0.6368 0.6246 -0.4520
vn -0.8783 0.0005 -0.4781
vn -0.5129 -0.0015 -0.8584
vn -0.9856 -0.0994 0.1368
vn -0.0000 -1.0000 0.0000
vn -0.7003 0.4221 0.5757
vn 0.8054 0.5243 -0.2764
vn 0.8775 0.0000 0.4796
vn 0.4587 0.6758 0.5770
usemtl rock
s 1
f 32/1/1 23/2/1 1/3/1 27/4/1
f 11/5/2 6/6/2 5/7/2 12/8/2
f 3/9/3 2/10/3 5/7/3 6/11/3 4/12/3
f 33/13/4 8/14/4 7/15/4 34/16/4
f 19/17/5 18/18/5 20/19/5 21/20/5 22/21/5
f 37/22/6 36/23/6 17/24/6 16/25/6 15/26/6
f 23/2/7 26/27/7 14/28/7 12/29/7 5/30/7 2/31/7 1/3/7
f 33/13/8 38/32/8 21/20/8 20/19/8 8/14/8
f 28/33/9 19/17/9 22/21/9 10/34/9 30/35/9
f 8/14/10 20/19/10 18/18/10 3/9/10 4/36/10 7/15/10
f 31/37/11 32/1/11 27/4/11 28/38/11 30/35/11 29/39/11
f 16/25/12 17/24/12 14/28/12 26/27/12 25/40/12
f 13/41/13 15/26/13 16/25/13 25/40/13 24/42/13
f 29/39/14 9/43/14 13/44/14 24/45/14 31/37/14
f 26/27/15 23/2/15 32/1/15 31/37/15 24/45/15 25/40/15
f 10/34/16 9/43/16 29/39/16 30/35/16
f 3/9/17 18/18/17 19/46/17 28/38/17 27/47/17 1/48/17 2/10/17
f 9/43/18 10/34/18 22/21/18 21/20/18 38/32/18 37/22/18 15/26/18 13/41/18
f 17/49/19 36/50/19 35/51/19 11/5/19 12/29/19 14/28/19
f 6/6/20 11/5/20 35/51/20 34/16/20 7/15/20 4/36/20
f 37/22/21 38/32/21 33/13/21 34/16/21 35/51/21 36/50/21
