# Blender v2.83.16 OBJ File: ''
# www.blender.org
mtllib rock10.mtl
v -0.484639 4.190127 0.554319
v 0.055777 4.190127 0.595183
v 0.338028 4.037773 0.652890
v 0.866356 3.874320 0.171855
v 0.458887 4.190127 -0.375346
v 0.521363 4.157764 -0.369156
v -0.045062 4.190127 -0.539533
v -0.239911 4.190127 -0.477087
v -0.660818 4.190127 0.424351
v -0.778166 3.408658 -0.543503
v -0.657085 4.190127 0.170985
v -0.181562 2.682331 0.937130
v -0.582457 -0.012216 0.399910
v 0.386497 3.126735 0.874009
v -0.039431 2.607366 0.965770
v 0.255182 -0.012216 0.638092
v 0.544093 -0.012216 0.544603
v 0.744317 1.257402 0.592421
v 0.820459 -0.012216 -0.008173
v 0.883553 0.686511 0.112347
v 0.775218 -0.012216 -0.307438
v 0.462387 -0.012216 -0.681011
v 0.416444 0.473615 -0.807698
v 0.296446 0.535741 -0.856165
v 0.230477 -0.012216 -0.746581
v -0.784107 3.372583 -0.552628
v -0.879040 2.892262 0.400425
v -0.757614 0.747047 0.469360
v -0.724487 1.745263 0.635567
v 0.838251 1.221292 -0.414520
v 0.786145 1.776515 -0.558824
v 0.554701 3.439221 -0.672800
v 0.631754 1.701824 -0.732152
v 0.417553 3.181400 -0.830331
v 0.767093 1.817337 -0.587610
v 0.676768 3.162225 -0.572376
v 0.146133 3.253804 -0.887069
v 0.034427 1.952809 -0.972915
v 0.237685 3.151698 -0.901933
v -0.130287 2.173970 -0.943441
v -0.157591 2.941351 -0.885257
v -0.629702 2.100114 -0.739723
v -0.723168 3.154773 -0.638749
v -0.401442 2.224358 -0.846733
v -0.460040 2.971988 -0.778960
v -0.832792 -0.012216 -0.018579
v -0.868998 2.882010 -0.398376
v -0.870833 0.587684 0.204054
v -0.928391 2.587182 0.262846
v 0.912596 3.703650 0.176041
v 0.927025 3.394821 0.253003
v 0.974118 2.349657 0.004866
v 0.969548 2.444040 -0.065461
v 0.949836 2.869632 -0.121250
v 0.942746 3.024781 -0.113521
v 0.460858 2.995596 0.838316
v 0.745166 1.449723 0.609204
v 0.811347 2.801918 0.544434
v -0.785150 0.435802 -0.424188
v -0.696841 -0.012216 -0.389383
v -0.806790 0.440429 -0.390466
v -0.814886 -0.012216 -0.195290
vt 0.157886 0.873640
vt 0.090763 0.214119
vt 0.200761 0.395892
vt 0.768233 0.858936
vt 0.701255 0.887444
vt 0.706217 0.901633
vt 0.749241 0.780699
vt 0.761316 0.791590
vt 0.771174 0.842179
vt 0.682551 0.854498
vt 0.417928 0.458913
vt 0.385396 0.410098
vt 0.344899 0.346384
vt 0.403860 0.324952
vt 0.362630 0.342125
vt 0.238940 0.382423
vt 0.191116 0.367096
vt 0.088725 0.208033
vt 0.087809 0.145847
vt 0.131050 0.113947
vt 0.263690 0.103918
vt 0.364661 0.707976
vt 0.461565 0.793341
vt 0.277480 0.551145
vt 0.280015 0.719721
vt 0.315346 0.832143
vt 0.491175 0.804261
vt 0.551924 0.817927
vt 0.570888 0.823116
vt 0.647065 0.662904
vt 0.655936 0.834807
vt 0.419633 0.482761
vt 0.607042 0.151846
vt 0.610132 0.392880
vt 0.737745 0.568466
vt 0.669988 0.610419
vt 0.883542 0.116332
vt 0.819330 0.383356
vt 0.749442 0.780448
vt 0.951374 0.252006
vt 0.912166 0.367102
vt 0.849753 0.611406
vt 0.422390 0.805855
vt 0.845633 0.788413
vt 0.891324 0.837030
vt 0.619879 0.733417
vt 0.401383 0.759882
vt 0.669764 0.550018
vt 0.937148 0.536561
vt 0.863489 0.417148
vt 0.633676 0.440798
vt 0.289303 0.793032
vt 0.306133 0.804634
vt 0.155308 0.882278
vt 0.182636 0.835864
vt 0.852852 0.706620
vt 0.764183 0.758453
vt 0.839723 0.852519
vt 0.857038 0.713487
vt 0.887900 0.702335
vt 0.883272 0.847298
vt 0.857231 0.600326
vt 0.940270 0.325458
vt 0.951798 0.428008
vt 0.857925 0.712172
vt 0.854164 0.704676
vt 0.824911 0.788413
vt 0.251268 0.419231
vt 0.880974 0.701483
vt 0.845386 0.525277
vt 0.820519 0.541956
vt 0.136262 0.868131
vt 0.248005 0.835970
vt 0.220377 0.766018
vt 0.112946 0.751272
vt 0.230458 0.548630
vt 0.222209 0.548811
vt 0.578967 0.345571
vt 0.531650 0.336368
vt 0.292959 0.803948
vt 0.327667 0.520062
vt 0.381817 0.561995
vt 0.309629 0.557857
vt 0.506295 0.336911
vt 0.484656 0.408272
vt 0.655628 0.628281
vt 0.732561 0.574913
vt 0.812632 0.093386
vt 0.747979 0.284953
vt 0.806568 0.433241
vt 0.545599 0.254560
vt 0.549994 0.297932
vt 0.115852 0.749687
vt 0.455572 0.421587
vt 0.470626 0.417696
vt 0.399872 0.759963
vt 0.617388 0.733550
vt 0.319925 0.486794
vt 0.219777 0.766050
vn -0.7130 0.5301 -0.4590
vn 0.9989 0.0458 -0.0034
vn 0.4380 0.8804 0.1819
vn 0.0000 1.0000 0.0000
vn -0.5915 0.0847 0.8018
vn -0.0734 0.2315 0.9701
vn 0.6442 0.0051 0.7649
vn -0.2704 -0.1494 0.9511
vn 0.8835 -0.1560 0.4417
vn 0.9868 -0.0634 -0.1492
vn -0.0805 0.0725 -0.9941
vn 0.2654 -0.2197 -0.9388
vn -0.9860 0.1661 -0.0145
vn 0.9382 -0.0019 -0.3462
vn 0.7064 0.0554 -0.7057
vn 0.7633 -0.0945 -0.6392
vn 0.2860 0.3842 -0.8778
vn 0.8707 0.2252 -0.4373
vn 0.3710 -0.0079 -0.9286
vn -0.2930 0.2795 -0.9143
vn -0.3255 0.0600 -0.9436
vn -0.4445 0.0462 -0.8946
vn -0.8364 -0.2044 -0.5087
vn -0.9106 -0.0383 0.4116
vn -0.8335 -0.2379 0.4986
vn 0.8716 0.0640 -0.4860
vn 0.6929 0.2047 0.6914
vn 0.9493 -0.0315 0.3128
vn 0.3068 -0.0841 0.9481
vn -0.9946 -0.0257 -0.1008
vn -0.0000 -1.0000 0.0000
vn -0.8428 -0.0232 -0.5377
vn -0.3558 -0.1419 -0.9237
usemtl rock
s 1
f 10/1/1 11/2/1 8/3/1
f 55/4/2 50/5/2 51/6/2 52/7/2 53/8/2 54/9/2
f 4/10/3 6/11/3 5/12/3 2/13/3 3/14/3
f 5/15/4 7/16/4 8/17/4 11/18/4 9/19/4 1/20/4 2/21/4
f 29/22/5 12/23/5 1/24/5 9/25/5 27/26/5
f 15/27/6 14/28/6 3/14/6 2/13/6 1/24/6 12/23/6
f 56/29/7 57/30/7 58/31/7
f 29/22/8 28/32/8 13/33/8 16/34/8 15/27/8 12/23/8
f 20/35/9 18/36/9 17/37/9 19/38/9
f 53/8/10 52/39/10 20/35/10 19/40/10 21/41/10 30/42/10
f 41/43/11 37/44/11 39/45/11 38/46/11 40/47/11
f 24/48/12 23/49/12 22/50/12 25/51/12
f 49/52/13 27/53/13 9/19/13 11/2/13 10/1/13 26/54/13 47/55/13
f 54/9/14 53/8/14 30/42/14 31/56/14
f 32/57/15 36/58/15 35/59/15 33/60/15 34/61/15
f 30/62/16 21/63/16 22/64/16 23/49/16 33/60/16 35/65/16 31/66/16
f 37/67/17 7/68/17 5/12/17 6/11/17 32/57/17 34/61/17 39/45/17
f 50/5/18 55/4/18 36/58/18 32/57/18 6/11/18 4/10/18
f 33/69/19 23/70/19 24/71/19 38/46/19 39/45/19 34/61/19
f 43/72/20 26/54/20 10/1/20 8/3/20 7/68/20 37/44/20 41/43/20 45/73/20
f 44/74/21 45/73/21 41/43/21 40/47/21
f 45/73/22 44/74/22 42/75/22 43/72/22
f 61/76/23 59/77/23 60/78/23 62/79/23
f 27/26/24 49/80/24 48/81/24 28/32/24 29/22/24
f 28/82/25 48/83/25 46/84/25 13/85/25
f 35/59/26 36/58/26 55/4/26 54/9/26 31/56/26
f 56/29/27 58/31/27 51/6/27 50/5/27 4/10/27 3/14/27 14/28/27
f 18/86/28 20/87/28 52/7/28 51/6/28 58/31/28 57/30/28
f 15/27/29 16/88/29 17/89/29 18/86/29 57/30/29 56/29/29 14/28/29
f 49/80/30 47/55/30 61/76/30 62/79/30 46/84/30 48/81/30
f 25/90/31 22/50/31 21/63/31 19/40/31 17/37/31 16/88/31 13/33/31 46/91/31 62/92/31 60/78/31
f 47/55/32 26/54/32 43/72/32 42/93/32 59/94/32 61/95/32
f 40/96/33 38/97/33 24/48/33 25/90/33 60/98/33 59/77/33 42/75/33 44/99/33
