# Blender v2.83.16 OBJ File: ''
# www.blender.org
mtllib rock3.mtl
v -0.374253 -0.336838 -0.174358
v -0.435628 0.274267 -0.137593
v 0.183735 -0.265797 -0.423697
v 0.108228 0.311881 -0.364597
v -0.122360 -0.345308 0.386932
v -0.183735 0.265797 0.423697
v 0.435628 -0.274267 0.137593
v 0.360121 0.303412 0.196692
v 0.457796 0.395041 0.561131
v 0.521178 -0.211315 0.521193
v -0.036809 -0.282356 0.770532
v 0.067629 0.890264 -0.354146
v 0.319521 0.881794 0.207143
v 0.793638 0.358662 0.002945
v 0.869119 -0.219076 -0.056115
v 1.015825 0.384967 0.444418
v 1.077227 -0.226074 0.407610
v 0.530051 0.365586 -0.553090
v 0.605558 -0.212092 -0.612190
v 0.857451 -0.220562 -0.050900
v 0.781944 0.357116 0.008199
v -0.617831 -0.199231 0.086413
v -0.651907 0.140059 0.106825
v -0.512054 0.135356 0.418457
v -0.477978 -0.203934 0.398045
v -0.362435 -0.207819 0.655509
v 0.295890 0.434230 0.425290
v 0.015928 0.413088 0.543047
v 0.274016 0.728699 0.432286
v -0.012167 0.692841 0.559876
v 0.316401 0.166553 0.734944
v 0.349670 -0.164701 0.715016
v 0.617812 0.158553 0.673376
v 0.651081 -0.172701 0.653447
v -0.440256 0.320353 -0.134820
v -0.284729 0.812309 0.353396
v -0.034851 0.877217 -0.308353
v -0.494098 0.134753 0.458469
v -0.372733 -0.105280 0.661678
v -0.209877 0.254889 0.758110
v -0.176971 0.270775 0.454028
v -0.209865 0.254897 0.758116
v -0.061619 -0.035326 0.785394
v 0.235018 0.368478 0.659768
v -0.284723 0.812309 0.353410
v -0.207556 0.502981 0.437966
v -0.012180 0.692848 0.559870
v 0.042554 0.846532 0.330907
vt 0.375000 0.000000
vt 0.625000 0.000000
vt 0.625000 0.250000
vt 0.375000 0.250000
vt 0.375000 0.500000
vt 0.125000 0.500000
vt 0.125000 0.500000
vt 0.375000 0.500000
vt 0.625000 0.750000
vt 0.625000 1.000000
vt 0.625000 1.000000
vt 0.625000 0.750000
vt 0.375000 0.750000
vt 0.375000 0.750000
vt 0.450554 0.750000
vt 0.625000 0.750000
vt 0.375000 0.750000
vt 0.125000 0.750000
vt 0.625000 0.750000
vt 0.625000 0.750000
vt 0.625000 0.750000
vt 0.375000 0.500000
vt 0.375000 0.750000
vt 0.625000 0.500000
vt 0.625000 0.600173
vt 0.476059 0.750000
vt 0.375000 0.500000
vt 0.375000 0.500000
vt 0.625000 0.000000
vt 0.625000 0.204085
vt 0.625000 0.250000
vt 0.625000 0.500000
vt 0.625000 0.500000
vt 0.625000 0.624092
vt 0.625000 0.750000
vt 0.625000 0.750000
vt 0.625000 0.500000
vt 0.625000 0.500000
vt 0.625000 0.500000
vt 0.375000 0.500000
vt 0.375000 0.500000
vt 0.375000 0.250000
vt 0.625000 0.250000
vt 0.625000 0.500000
vt 0.375000 1.000000
vt 0.375000 0.000000
vt 0.625000 0.000000
vt 0.125000 0.750000
vt 0.625000 0.750000
vt 0.625000 0.500000
vt 0.625000 0.750000
vt 0.625000 0.795909
vt 0.625000 0.795915
vt 0.625000 1.000000
vt 0.625000 0.500000
vt 0.625000 0.500000
vt 0.625000 0.000000
vt 0.670909 0.750000
vt 0.625000 0.689172
vt 0.875000 0.500000
vt 0.875000 0.545915
vt 0.670915 0.750000
vn -0.3990 0.0280 -0.9165
vn 0.0998 -0.9932 -0.0598
vn -0.3658 0.9135 0.1779
vn -0.9069 -0.1155 0.4052
vn -0.3917 0.9199 0.0189
vn 0.1782 -0.9766 0.1205
vn 0.4084 -0.0160 0.9127
vn 0.0553 -0.9974 0.0467
vn -0.3896 -0.0055 -0.9210
vn 0.9104 0.0713 -0.4075
vn 0.1559 0.8022 0.5764
vn 0.8935 0.1374 -0.4276
vn 0.0266 -0.9663 0.2560
vn -0.0805 0.9903 -0.1130
vn -0.4119 0.0393 -0.9104
vn 0.9016 0.1590 -0.4022
vn -0.0998 0.9932 0.0598
vn -0.4118 0.0393 -0.9104
vn 0.4118 -0.0393 0.9104
vn -0.3226 -0.9280 0.1867
vn -0.7392 -0.0338 -0.6726
vn -0.3613 -0.9206 0.1483
vn 0.3979 -0.0034 0.9174
vn 0.9692 0.0646 0.2376
vn 0.2792 -0.8001 0.5309
vn 0.1990 -0.0389 0.9792
vn 0.4995 -0.0020 0.8663
vn -0.7523 -0.0355 -0.6579
vn 0.1839 0.5203 0.8340
vn -0.8175 0.5147 -0.2582
vn -0.4557 -0.0990 0.8846
vn -0.7478 0.1660 0.6428
vn -0.3502 -0.0913 0.9322
vn -0.0345 0.7281 0.6846
vn -0.1578 0.9715 -0.1771
vn -0.3665 0.5094 0.7786
usemtl rock
s 1
f 1/1/1 2/2/1 4/3/1 3/4/1
f 7/5/2 3/6/2 19/7/2 20/8/2
f 6/9/3 2/10/3 23/11/3 24/12/3
f 24/12/4 25/13/4 26/14/4 39/15/4 38/16/4
f 3/6/2 7/5/2 5/17/2 1/18/2
f 42/19/5 41/20/5 6/9/5 24/12/5 38/16/5 40/21/5
f 5/17/6 7/5/6 10/22/6 11/23/6
f 10/22/7 9/24/7 44/25/7 43/26/7 11/23/7
f 10/22/8 7/5/8 15/27/8 17/28/8
f 4/3/9 2/2/9 35/29/9 37/30/9 12/31/9
f 8/32/10 4/3/10 12/31/10 13/33/10
f 13/33/11 48/34/11 47/35/11 30/36/11 29/37/11
f 15/27/12 14/38/12 16/39/12 17/28/12
f 10/22/13 17/28/13 34/40/13 32/41/13
f 8/32/14 9/24/14 16/39/14 14/38/14
f 7/5/15 8/32/15 14/38/15 15/27/15
f 19/42/16 18/43/16 21/44/16 20/8/16
f 4/3/17 8/32/17 21/44/17 18/43/17
f 3/4/18 4/3/18 18/43/18 19/42/18
f 8/32/19 7/5/19 20/8/19 21/44/19
f 25/13/4 24/12/4 23/11/4 22/45/4
f 5/17/20 11/23/20 26/14/20 25/13/20
f 2/2/21 1/1/21 22/46/21 23/47/21
f 1/18/22 5/17/22 25/13/22 22/48/22
f 28/49/23 27/50/23 29/37/23 30/36/23
f 2/10/4 6/9/4 46/51/4 45/52/4 36/53/4 35/54/4
f 8/32/24 13/33/24 29/37/24 27/50/24
f 6/9/25 8/32/25 27/50/25 28/49/25
f 31/55/26 32/41/26 34/40/26 33/56/26
f 17/28/27 16/39/27 33/56/27 34/40/27
f 9/24/28 10/22/28 32/41/28 31/55/28
f 16/39/29 9/24/29 31/55/29 33/56/29
f 35/29/30 36/57/30 37/30/30
f 47/35/31 46/51/31 6/9/31 28/49/31 30/36/31
f 38/16/32 39/15/32 40/21/32
f 11/23/33 43/26/33 42/19/33 40/21/33 39/15/33 26/14/33
f 41/20/34 42/19/34 43/26/34 44/25/34
f 8/32/35 6/9/35 41/20/35 44/25/35 9/24/35
f 45/58/36 46/51/36 47/59/36 48/34/36
f 13/33/17 12/60/17 37/61/17 36/62/17 45/58/17 48/34/17
