# Blender v2.83.16 OBJ File: ''
# www.blender.org
mtllib rock7.mtl
v -0.620257 2.076984 -0.035505
v -0.412604 2.392509 -0.183876
v -0.496694 0.103673 0.000000
v -0.778519 1.594594 -0.271617
v -0.739687 1.580329 -0.405124
v -0.498644 0.105914 0.000000
v -0.496613 0.103888 0.004463
v -0.426900 0.380256 0.513164
v -0.415776 0.105554 0.266695
v -0.199727 0.569120 0.729320
v -0.020572 1.787159 0.801169
v -0.153323 0.887144 0.792678
v 0.062357 1.238559 0.825806
v -0.033031 1.753128 0.807165
v -0.048651 1.786772 0.800109
v -0.226519 1.603699 0.776459
v -0.038940 1.757053 0.806177
v -0.468047 1.940346 0.553436
v -0.377805 2.019705 0.598493
v -0.480375 1.850734 0.566396
v -0.261975 1.723308 0.752969
v -0.229970 1.842535 0.746846
v 0.382989 2.008638 0.644394
v 0.367250 1.951619 0.689053
v 0.725638 1.879844 0.261435
v 0.270953 0.273266 0.555098
v 0.412612 1.205855 0.739641
v 0.509185 1.531938 0.687980
v 0.665619 1.468519 0.515128
v 0.632541 0.922982 0.439456
v 0.465253 0.907144 0.658542
v 0.565109 1.460613 0.647112
v 0.463227 1.085164 0.700290
v 0.719659 2.038199 -0.016235
v 0.740738 1.922509 0.156504
v 0.558525 2.090502 -0.446652
v 0.767002 1.674366 -0.243866
v 0.724938 1.973158 -0.186502
v 0.626021 0.405083 0.147195
v 0.765843 1.617332 -0.272144
v 0.569841 1.675505 -0.615163
v 0.612356 0.501467 -0.377455
v 0.688494 0.616236 -0.263522
v 0.013054 1.668563 -0.806155
v -0.575963 0.913477 -0.600021
v -0.231921 0.907819 -0.790531
v -0.491372 0.100635 -0.044457
v -0.593521 0.264908 -0.142364
v -0.525047 0.139690 -0.050377
v -0.549442 0.335037 -0.346266
v 0.106938 -0.000317 -0.325447
v 0.520095 0.516822 -0.537227
v 0.102725 0.824388 -0.785099
v 0.487229 0.637323 -0.610319
v -0.113346 0.753966 -0.785642
v 0.540232 1.602502 -0.655482
v 0.214506 1.518287 -0.800499
v 0.247248 1.395818 -0.797242
v 0.497905 1.362867 -0.694097
v 0.217643 0.016141 0.311725
v 0.302700 0.119954 0.422622
v 0.495789 0.155939 0.180042
v 0.426441 0.056694 0.053471
v 0.335025 -0.015074 0.032824
v -0.327607 0.112133 -0.367276
v -0.298596 0.058320 -0.326975
v -0.189357 0.138145 -0.456966
v -0.114617 0.028856 -0.382415
v -0.413060 2.154658 -0.508675
v 0.014800 2.319618 -0.535205
v -0.093080 2.033821 -0.690333
v -0.364855 2.316033 -0.418936
v -0.405587 2.177501 -0.497743
v -0.396724 2.152027 -0.517344
v -0.125091 2.506487 0.223004
v -0.171806 2.521132 0.094004
v 0.124661 2.475233 0.260077
v 0.147541 2.357495 -0.474629
v 0.454761 2.226785 -0.425115
v 0.408338 2.394621 -0.104360
v 0.202604 2.493209 -0.113012
v 0.292194 2.478220 -0.047308
v -0.805330 1.224501 -0.014752
v -0.618860 0.846322 0.373512
v -0.775186 1.030092 0.058574
v -0.608227 1.387119 0.420188
vt 0.334675 0.666652
vt 0.292723 0.725236
vt 0.277661 0.692538
vt 0.300118 0.632300
vt 0.318430 0.636472
vt 0.546232 0.566549
vt 0.559929 0.478002
vt 0.629824 0.507705
vt 0.595309 0.581819
vt 0.553923 0.572500
vt 0.531118 0.404175
vt 0.548029 0.468702
vt 0.510511 0.456624
vt 0.515892 0.409636
vt 0.191446 0.546001
vt 0.232314 0.520677
vt 0.222349 0.548405
vt 0.190164 0.560537
vt 0.147257 0.615441
vt 0.154861 0.616562
vt 0.153834 0.625000
vt 0.153397 0.625000
vt 0.153835 0.625847
vt 0.143304 0.579861
vt 0.182026 0.521290
vt 0.302176 0.775143
vt 0.408209 0.912215
vt 0.219518 0.773061
vt 0.167356 0.677163
vt 0.558412 0.888944
vt 0.538532 0.920661
vt 0.450656 0.905822
vt 0.495364 0.869933
vt 0.557980 0.887948
vt 0.536985 0.790563
vt 0.600243 0.823338
vt 0.562443 0.886073
vt 0.490356 0.808473
vt 0.562080 0.890704
vt 0.570405 0.919929
vt 0.554659 0.925787
vt 0.581988 0.862075
vt 0.571339 0.839195
vt 0.609662 0.916866
vt 0.758717 0.686795
vt 0.614086 0.809930
vt 0.722817 0.687860
vt 0.526978 0.740136
vt 0.526664 0.776342
vt 0.469216 0.794574
vt 0.434649 0.784171
vt 0.451289 0.723469
vt 0.583359 0.685761
vt 0.602326 0.621196
vt 0.586781 0.661174
vt 0.380338 0.658615
vt 0.406472 0.563048
vt 0.398355 0.426482
vt 0.468261 0.127268
vt 0.456544 0.253910
vt 0.456807 0.328284
vt 0.436833 0.348075
vt 0.394609 0.451917
vt 0.443389 0.384018
vt 0.549010 0.369757
vt 0.259515 0.557705
vt 0.377582 0.472498
vt 0.381065 0.529433
vt 0.733921 0.424496
vt 0.788233 0.499447
vt 0.650858 0.400766
vt 0.599054 0.349721
vt 0.718809 0.408994
vt 0.725158 0.412652
vt 0.540056 0.209294
vt 0.536571 0.194311
vt 0.597793 0.346116
vt 0.836054 0.588628
vt 0.789901 0.643707
vt 0.680308 0.599868
vt 0.653429 0.509360
vt 0.665579 0.449235
vt 0.721142 0.594520
vt 0.703628 0.613633
vt 0.516088 0.514436
vt 0.475234 0.121629
vn 0.5410 -0.7798 0.3150
vn 0.8639 0.2096 -0.4581
vn 0.3882 0.0794 -0.9181
vn -0.3103 -0.6713 -0.6730
vn -0.7532 -0.6562 -0.0453
vn -0.7537 -0.6556 0.0453
vn -0.6766 -0.6389 -0.3660
vn -0.1459 -0.6639 0.7334
vn -0.1612 0.0059 0.9869
vn 0.2452 0.0805 0.9661
vn -0.0396 0.1874 0.9815
vn -0.2470 0.1157 0.9621
vn -0.5694 0.1939 0.7989
vn -0.0381 0.6227 0.7816
vn 0.7925 -0.1307 0.5957
vn 0.2135 -0.2208 0.9517
vn 0.5603 -0.0348 0.8275
vn 0.7616 0.2560 0.5953
vn 0.9893 0.1439 -0.0243
vn 0.9908 -0.0756 0.1119
vn -0.9136 -0.2914 0.2835
vn -0.4537 -0.3754 -0.8082
vn 0.3655 -0.1121 -0.9240
vn 0.0103 -0.0238 -0.9997
vn 0.6172 -0.6652 -0.4203
vn 0.8608 -0.0709 -0.5039
vn 0.8749 -0.4718 -0.1095
vn 0.7628 -0.3250 0.5590
vn 0.1586 -0.4801 -0.8628
vn -0.1431 -0.9884 0.0504
vn -0.2523 0.5334 -0.8073
vn -0.3440 0.4945 -0.7982
vn -0.8526 0.4259 -0.3028
vn -0.4753 0.1306 -0.8701
vn -0.7109 0.6221 0.3281
vn 0.4135 0.8300 -0.3744
vn 0.1134 0.9910 0.0714
vn 0.6552 0.6622 0.3635
vn 0.7615 0.6130 -0.2106
vn 0.2979 0.3661 -0.8816
vn -0.1138 0.9361 -0.3327
vn -0.6658 -0.0512 0.7444
vn -0.9046 -0.0086 0.4261
vn -0.9372 0.1949 0.2892
vn -0.9496 -0.1624 -0.2681
usemtl rock
s 1
f 62/1/1 61/2/1 60/3/1 64/4/1 63/5/1
f 40/6/2 41/7/2 36/8/2 38/9/2 37/10/2
f 57/11/3 56/12/3 59/13/3 58/14/3
f 65/15/4 67/16/4 68/17/4 66/18/4
f 49/19/5 47/20/5 3/21/5 6/22/5
f 6/22/6 3/21/6 7/23/6
f 65/15/7 66/18/7 47/20/7 49/19/7 48/24/7 50/25/7
f 61/2/8 26/26/8 10/27/8 8/28/8 9/29/8 60/3/8
f 17/30/9 16/31/9 12/32/9 13/33/9 14/34/9
f 28/35/10 24/36/10 11/37/10 14/34/10 13/33/10 27/38/10
f 14/34/11 11/37/11 15/39/11 17/30/11
f 17/30/12 15/39/12 22/40/12 21/41/12 16/31/12
f 18/42/13 20/43/13 21/41/13 22/40/13 19/44/13
f 75/45/14 19/44/14 22/40/14 15/39/14 11/37/14 24/36/14 23/46/14 77/47/14
f 29/48/15 32/49/15 33/50/15 31/51/15 30/52/15
f 33/50/16 27/38/16 13/33/16 12/32/16 10/27/16 26/26/16 31/51/16
f 33/50/17 32/49/17 28/35/17 27/38/17
f 25/53/18 23/46/18 24/36/18 28/35/18 32/49/18 29/48/18
f 34/54/19 35/55/19 37/10/19 38/9/19
f 37/10/20 35/55/20 25/53/20 29/48/20 30/52/20 39/56/20 43/57/20 40/6/20
f 84/58/21 85/59/21 48/24/21 49/19/21 6/22/21 7/23/21 9/29/21 8/28/21
f 65/15/22 50/25/22 45/60/22 46/61/22 55/62/22 67/16/22
f 58/14/23 59/13/23 54/63/23 53/64/23
f 58/14/24 53/64/24 55/62/24 46/61/24 44/65/24 57/11/24
f 63/5/25 64/4/25 51/66/25 52/67/25 42/68/25
f 54/63/26 59/13/26 56/12/26 41/7/26 40/6/26 43/57/26 42/68/26 52/67/26
f 42/68/27 43/57/27 39/56/27 62/1/27 63/5/27
f 30/52/28 31/51/28 26/26/28 61/2/28 62/1/28 39/56/28
f 55/62/29 53/64/29 54/63/29 52/67/29 51/66/29 68/17/29 67/16/29
f 51/66/30 64/4/30 60/3/30 9/29/30 7/23/30 3/21/30 47/20/30 66/18/30 68/17/30
f 73/69/31 72/70/31 70/71/31 71/72/31 74/73/31
f 69/74/32 73/69/32 74/73/32
f 5/75/33 4/76/33 1/77/33 2/78/33 72/70/33 73/69/33 69/74/33
f 69/74/34 74/73/34 71/72/34 44/65/34 46/61/34 45/60/34 5/75/34
f 19/44/35 75/45/35 76/79/35 2/78/35 1/77/35 18/42/35
f 80/80/36 79/81/36 78/82/36 81/83/36 82/84/36
f 76/79/37 75/45/37 77/47/37 82/84/37 81/83/37
f 23/46/38 25/53/38 35/55/38 34/54/38 80/80/38 82/84/38 77/47/38
f 36/8/39 79/81/39 80/80/39 34/54/39 38/9/39
f 56/12/40 57/11/40 44/65/40 71/72/40 70/71/40 78/82/40 79/81/40 36/8/40 41/7/40
f 72/70/41 2/78/41 76/79/41 81/83/41 78/82/41 70/71/41
f 8/28/42 10/27/42 12/32/42 16/31/42 21/41/42 20/43/42 86/85/42 84/58/42
f 85/59/43 84/58/43 86/85/43 83/86/43
f 1/77/44 4/76/44 83/86/44 86/85/44 20/43/44 18/42/44
f 50/25/45 48/24/45 85/59/45 83/86/45 4/76/45 5/75/45 45/60/45
