# Blender v2.83.16 OBJ File: ''
# www.blender.org
mtllib rock5.mtl
v -0.262952 0.983823 -1.108080
v -0.202678 0.717221 -1.149924
v -0.582417 1.015682 -0.979493
v -0.593608 0.859170 -0.985625
v -0.734317 0.711607 -0.825214
v -0.818682 0.954001 -0.685864
v -0.757326 1.213255 -0.730379
v -0.672187 0.177334 -0.590453
v -0.689588 0.158655 -0.496588
v -0.734176 1.188900 0.868505
v -0.880627 1.389189 0.102934
v -0.807859 1.357126 0.537018
v -0.817584 1.202902 0.690313
v -0.941057 0.901852 -0.100842
v -0.914047 1.019900 0.415509
v -0.905895 1.277470 0.115981
v -0.942518 0.858862 -0.053678
v -0.640266 0.025148 -0.215861
v -0.564584 -0.028009 -0.229988
v -0.750995 0.508570 0.596887
v -0.884970 0.511595 0.023792
v -0.929698 0.850840 0.322842
v -0.939380 0.785097 0.185790
v -0.888986 0.526141 0.027572
v -0.749459 0.211802 0.173250
v -0.413789 0.213512 0.825612
v -0.408327 0.169100 0.769818
v -0.723424 0.241098 0.327943
v -0.722020 0.419539 0.592701
v -0.407894 -0.001681 -0.659192
v -0.380066 -0.039225 -0.611601
v -0.637528 1.250018 0.988602
v -0.618041 1.409479 0.848483
v -0.173861 0.477635 1.165832
v 0.062720 0.408383 1.085876
v -0.368546 1.017591 1.172150
v 0.038432 1.183452 0.999510
v -0.293445 1.679877 0.289344
v -0.375823 1.567737 0.693920
v 0.342624 0.796116 0.933440
v 0.332278 0.703814 0.948676
v 0.392749 0.617576 0.866170
v 0.473315 0.785334 0.753289
v 0.746991 0.927675 0.215218
v 0.877606 0.775432 -0.121213
v 0.864987 0.694346 -0.297224
v 0.776370 0.323466 -0.066595
v 0.882354 0.695891 -0.160209
v 0.156935 -0.102641 -0.619197
v 0.022181 -0.085307 -0.668184
v 0.306641 -0.000255 -0.754568
v -0.177622 -0.066506 0.480065
v -0.184132 -0.090278 0.386233
v 0.344177 -0.135404 -0.240036
v 0.574156 0.084843 0.282709
v 0.525255 -0.005860 0.150602
v 0.270112 0.203088 0.833596
v 0.304853 0.075844 0.674334
v 0.386014 0.236437 0.742831
v 0.370805 0.071099 0.599860
v 0.455228 0.110330 0.548122
v 0.751659 0.275832 -0.145169
v 0.798714 0.483806 -0.295909
v 0.503031 -0.086257 -0.166562
v 0.498043 -0.089615 -0.176443
v 0.491808 0.004047 -0.504779
v 0.569998 0.082263 -0.432462
v 0.663313 0.136798 -0.220841
v 0.486913 0.907567 -0.903604
v 0.059506 1.235199 -0.956569
v -0.051992 0.532173 -1.146810
v 0.014583 0.123433 -0.978738
v 0.045901 0.099101 -0.952044
v 0.298188 0.008724 -0.769952
v 0.429783 0.815188 -0.941152
v 0.447361 1.568585 0.027359
v 0.430718 1.698085 -0.349687
v 0.736065 1.335058 -0.166104
v 0.235008 1.686143 -0.562452
v 0.208343 1.430879 -0.807612
v 0.443810 1.697835 -0.393049
v 0.857210 0.730404 -0.323444
v 0.841522 0.985201 -0.202277
v 0.748580 1.337275 -0.215772
v 0.593967 1.021732 -0.807663
v 0.626250 1.519198 -0.411380
v 0.578322 1.177172 -0.749164
v 0.022606 1.392940 0.818315
v -0.222596 1.515084 0.729080
v 0.078745 1.450727 0.680062
v -0.336570 1.665369 -0.409552
v -0.472900 1.663478 -0.204880
v -0.814953 1.468157 -0.156617
v -0.514588 1.648189 -0.250404
v -0.753915 1.436952 -0.509479
v -0.492977 1.633392 -0.393797
vt 0.661605 0.261969
vt 0.674406 0.289890
vt 0.795250 0.623811
vt 0.787778 0.580178
vt 0.493577 0.074161
vt 0.454349 0.102780
vt 0.416855 0.089255
vt 0.419895 0.134151
vt 0.496931 0.060233
vt 0.477596 0.135194
vt 0.505992 0.130352
vt 0.491644 0.173663
vt 0.597206 0.167874
vt 0.581991 0.131533
vt 0.608095 0.143566
vt 0.441896 0.232302
vt 0.342652 0.383324
vt 0.328447 0.400758
vt 0.402516 0.230515
vt 0.462755 0.124872
vt 0.404236 0.213997
vt 0.348518 0.214622
vt 0.512083 0.125877
vt 0.559065 0.242461
vt 0.547484 0.242820
vt 0.491873 0.175811
vt 0.510223 0.257765
vt 0.466942 0.219006
vt 0.514726 0.492514
vt 0.543954 0.471164
vt 0.533911 0.554367
vt 0.506525 0.519907
vt 0.589438 0.414090
vt 0.585471 0.413435
vt 0.559638 0.389836
vt 0.566112 0.368769
vt 0.626858 0.386826
vt 0.564610 0.298623
vt 0.558090 0.305670
vt 0.510994 0.273364
vt 0.325774 0.632168
vt 0.324498 0.730791
vt 0.223971 0.581265
vt 0.234414 0.572400
vt 0.266760 0.568843
vt 0.317532 0.613684
vt 0.234478 0.491012
vt 0.270721 0.478603
vt 0.336925 0.593641
vt 0.359236 0.623618
vt 0.400179 0.796590
vt 0.373819 0.710567
vt 0.373928 0.789928
vt 0.550093 0.234289
vt 0.529923 0.068937
vt 0.367945 0.653427
vt 0.480283 0.598821
vt 0.545338 0.272043
vt 0.357830 0.516002
vt 0.330811 0.515504
vt 0.538563 0.698831
vt 0.530831 0.700698
vt 0.461542 0.637952
vt 0.515343 0.608078
vt 0.531104 0.639896
vt 0.508699 0.418785
vt 0.427301 0.330536
vt 0.410926 0.341160
vt 0.381700 0.475850
vt 0.456209 0.463760
vt 0.438411 0.481717
vt 0.391803 0.489039
vt 0.495887 0.529184
vt 0.518971 0.594651
vt 0.369989 0.468857
vt 0.539014 0.591105
vt 0.501929 0.447909
vt 0.503247 0.446704
vt 0.552044 0.448640
vt 0.766506 0.547773
vt 0.680656 0.593877
vt 0.632604 0.383087
vt 0.740154 0.673215
vt 0.669276 0.609411
vt 0.506707 0.769642
vt 0.578777 0.721466
vt 0.543804 0.596134
vt 0.644023 0.629864
vt 0.639158 0.656564
vt 0.579276 0.747213
vt 0.587917 0.750950
vt 0.620421 0.627386
vt 0.579324 0.285513
vt 0.694210 0.697697
vt 0.571025 0.201907
vt 0.576466 0.098641
vn -0.3673 0.0626 -0.9280
vn -0.9552 0.2368 0.1776
vn -0.9850 -0.1680 -0.0388
vn -0.7848 0.0802 -0.6146
vn -0.6991 -0.5912 0.4022
vn -0.9008 -0.1416 0.4105
vn -0.9967 0.0728 0.0355
vn -0.9538 -0.2067 -0.2179
vn -0.9014 -0.4306 -0.0464
vn -0.9257 -0.3114 0.2148
vn 0.8719 -0.4010 -0.2811
vn 0.0875 -0.8387 -0.5375
vn -0.5870 -0.7663 -0.2613
vn 0.3480 0.1146 0.9305
vn -0.7926 0.4542 0.4067
vn 0.8096 0.0061 0.5870
vn -0.6857 -0.2552 0.6817
vn 0.2564 0.8504 0.4595
vn -0.4753 0.8680 0.1438
vn 0.6405 -0.2467 0.7273
vn 0.9346 0.2562 0.2469
vn -0.1176 -0.9927 -0.0277
vn -0.5268 -0.8146 0.2429
vn 0.5541 -0.7677 0.3220
vn 0.8967 -0.1505 0.4163
vn 0.6070 -0.5510 0.5727
vn -0.0192 -0.7832 0.6215
vn 0.9471 -0.2989 -0.1167
vn 0.7757 -0.6028 -0.1867
vn 0.3729 -0.8904 -0.2611
vn 0.1896 -0.9548 0.2288
vn 0.8189 -0.5674 0.0864
vn 0.5033 -0.2572 -0.8250
vn -0.1708 -0.8197 -0.5468
vn -0.4747 -0.3997 -0.7841
vn 0.2770 0.2098 -0.9377
vn 0.7223 0.4828 0.4951
vn 0.9064 0.2256 -0.3570
vn -0.0412 0.9990 -0.0182
vn 0.4964 0.5738 -0.6514
vn 0.3808 0.3590 -0.8521
vn 0.6951 0.6888 0.2059
vn 0.7801 -0.2491 -0.5740
vn 0.9846 0.1206 -0.1262
vn 0.2461 0.9200 0.3051
vn 0.0524 0.6555 0.7533
vn -0.2113 0.9685 -0.1318
vn -0.5447 0.8218 -0.1669
vn -0.2107 0.6885 -0.6940
vn -0.9631 0.1963 -0.1840
usemtl rock
s 1
f 4/1/1 3/2/1 1/3/1 2/4/1
f 16/5/2 15/6/2 13/7/2 12/8/2 11/9/2
f 23/10/3 17/11/3 24/12/3
f 4/1/4 5/13/4 6/14/4 7/15/4 3/2/4
f 28/16/5 27/17/5 26/18/5 29/19/5
f 22/20/6 20/21/6 10/22/6 13/7/6 15/6/6
f 17/11/7 23/10/7 22/20/7 15/6/7 16/5/7 14/23/7
f 17/11/8 14/23/8 6/14/8 5/13/8 8/24/8 9/25/8 21/26/8 24/12/8
f 9/25/9 18/27/9 25/28/9 21/26/9
f 22/20/10 23/10/10 24/12/10 21/26/10 25/28/10 28/16/10 29/19/10 20/21/10
f 68/29/11 67/30/11 63/31/11 62/32/11
f 74/33/12 51/34/12 49/35/12 50/36/12 73/37/12
f 9/25/13 8/24/13 30/38/13 31/39/13 19/40/13 18/27/13
f 40/41/14 37/42/14 36/43/14 34/44/14 35/45/14 41/46/14
f 12/8/15 13/7/15 10/22/15 32/47/15 33/48/15
f 40/41/16 41/46/16 42/49/16 43/50/16
f 29/19/17 26/18/17 34/44/17 36/43/17 32/47/17 10/22/17 20/21/17
f 90/51/18 89/52/18 88/53/18
f 94/54/19 93/55/19 11/9/19 12/8/19 33/48/19 39/56/19 38/57/19 92/58/19
f 59/59/20 42/49/20 41/46/20 35/45/20 57/60/20
f 84/61/21 78/62/21 44/63/21 45/64/21 83/65/21
f 54/66/22 53/67/22 19/40/22 31/39/22 50/36/22 49/35/22
f 25/28/23 18/27/23 19/40/23 53/67/23 52/68/23 27/17/23 28/16/23
f 60/69/24 56/70/24 55/71/24 61/72/24
f 55/71/25 47/73/25 48/74/25 45/64/25 44/63/25 43/50/25 42/49/25 59/59/25 61/72/25
f 60/69/26 61/72/26 59/59/26 57/60/26 58/75/26
f 52/68/27 58/75/27 57/60/27 35/45/27 34/44/27 26/18/27 27/17/27
f 46/76/28 48/74/28 47/73/28 62/32/28 63/31/28
f 68/29/29 64/77/29 65/78/29 66/79/29 67/30/29
f 49/35/30 51/34/30 66/79/30 65/78/30 54/66/30
f 56/70/31 60/69/31 58/75/31 52/68/31 53/67/31 54/66/31 65/78/31 64/77/31
f 47/73/32 55/71/32 56/70/32 64/77/32 68/29/32 62/32/32
f 71/80/33 75/81/33 74/33/33 73/37/33 72/82/33
f 30/38/34 72/82/34 73/37/34 50/36/34 31/39/34
f 8/24/35 5/13/35 4/1/35 2/4/35 71/80/35 72/82/35 30/38/35
f 2/4/36 1/3/36 70/83/36 69/84/36 75/81/36 71/80/36
f 88/53/37 37/42/37 40/41/37 43/50/37 44/63/37 78/62/37 76/85/37 90/51/37
f 86/86/38 84/61/38 83/65/38 82/87/38 85/88/38 87/89/38
f 92/58/39 38/57/39 77/90/39 81/91/39 79/92/39 91/93/39
f 80/94/40 79/92/40 81/91/40 86/86/40 87/89/40
f 80/94/41 87/89/41 85/88/41 69/84/41 70/83/41
f 78/62/42 84/61/42 86/86/42 81/91/42 77/90/42 76/85/42
f 66/79/43 51/34/43 74/33/43 75/81/43 69/84/43 85/88/43 82/87/43 46/76/43 63/31/43 67/30/43
f 45/64/44 48/74/44 46/76/44 82/87/44 83/65/44
f 77/90/45 38/57/45 39/56/45 89/52/45 90/51/45 76/85/45
f 37/42/46 88/53/46 89/52/46 39/56/46 33/48/46 32/47/46 36/43/46
f 94/54/47 92/58/47 91/93/47 96/95/47
f 96/95/48 95/96/48 93/55/48 94/54/48
f 91/93/49 79/92/49 80/94/49 70/83/49 1/3/49 3/2/49 7/15/49 95/96/49 96/95/49
f 16/5/50 11/9/50 93/55/50 95/96/50 7/15/50 6/14/50 14/23/50
